#Comment line ignore any data following # character 
#Hierarchical Translation and Rotation (.htr) file 
[Header]	
#Header keywords are followed by a single value 
FileType HTR		#Single word string
DataType HTRS		#Translation followed by rotation and scale data
FileVersion 1		#integer
NumSegments 25		#integer
NumFrames 5		#integer
DataFrameRate 30		#integer, data frame rate in this file
EulerRotationOrder ZYX
CalibrationUnits mm
RotationUnits Degrees
GlobalAxisofGravity Y
BoneLengthAxis Y
ScaleFactor 1.00
[SegmentNames&Hierarchy]
#CHILD	PARENT
BN_Tick_Root GLOBAL
BN_Torso BN_Tick_Root
BN_L_Leg_Front01 BN_Torso
BN_L_Leg_Rear01 BN_Torso
BN_MetalTop BN_Torso
BN_Neck BN_Torso
BN_R_Leg_Front01 BN_Torso
BN_R_Leg_Rear01 BN_Torso
BN_Sack BN_Torso
BN_L_Leg_Front02 BN_L_Leg_Front01
BN_L_Leg_Front03 BN_L_Leg_Front02
BN_L_Leg_Rear02 BN_L_Leg_Rear01
BN_L_Leg_Rear03 BN_L_Leg_Rear02
BN_Head BN_Neck
BN_Needle BN_Head
BN_R_Leg_Front02 BN_R_Leg_Front01
BN_R_Leg_Front03 BN_R_Leg_Front02
BN_R_Leg_Rear02 BN_R_Leg_Rear01
BN_R_Leg_Rear03 BN_R_Leg_Rear02
BN_SackDef01 BN_Sack
BN_SackDef02 BN_Sack
BN_SackDef03 BN_Sack
BN_SackDef04 BN_Sack
BN_SackDef05 BN_Sack
BN_SackDef06 BN_Sack
[BasePosition]
#SegmentName Tx, Ty, Tz, Rx, Ry, Rz, BoneLength
BN_Tick_Root 0.000000 0.000000 0.000000 -90.000000 0.000000 0.000000 10.000000 
BN_Torso 0.000000 0.000000 0.000000 0.000000 0.000000 0.000000 10.000000 
BN_L_Leg_Front01 0.000000 0.000000 0.000000 0.000000 0.000000 0.000000 10.000000 
BN_L_Leg_Rear01 0.000000 0.000000 0.000000 0.000000 0.000000 0.000000 10.000000 
BN_MetalTop 0.000000 0.000000 0.000000 0.000000 0.000000 0.000000 10.000000 
BN_Neck 0.000000 0.000000 0.000000 0.000000 0.000000 0.000000 10.000000 
BN_R_Leg_Front01 0.000000 0.000000 0.000000 0.000000 0.000000 0.000000 10.000000 
BN_R_Leg_Rear01 0.000000 0.000000 0.000000 0.000000 0.000000 0.000000 10.000000 
BN_Sack 0.000000 0.000000 0.000000 0.000000 0.000000 0.000000 10.000000 
BN_L_Leg_Front02 0.000000 0.000000 0.000000 0.000000 0.000000 0.000000 10.000000 
BN_L_Leg_Front03 0.000000 0.000000 0.000000 0.000000 0.000000 0.000000 10.000000 
BN_L_Leg_Rear02 0.000000 0.000000 0.000000 0.000000 0.000000 0.000000 10.000000 
BN_L_Leg_Rear03 0.000000 0.000000 0.000000 0.000000 0.000000 0.000000 10.000000 
BN_Head 0.000000 0.000000 0.000000 0.000000 0.000000 0.000000 10.000000 
BN_Needle 0.000000 0.000000 0.000000 0.000000 0.000000 0.000000 10.000000 
BN_R_Leg_Front02 0.000000 0.000000 0.000000 0.000000 0.000000 0.000000 10.000000 
BN_R_Leg_Front03 0.000000 0.000000 0.000000 0.000000 0.000000 0.000000 10.000000 
BN_R_Leg_Rear02 0.000000 0.000000 0.000000 0.000000 0.000000 0.000000 10.000000 
BN_R_Leg_Rear03 0.000000 0.000000 0.000000 0.000000 0.000000 0.000000 10.000000 
BN_SackDef01 0.000000 0.000000 0.000000 0.000000 0.000000 0.000000 10.000000 
BN_SackDef02 0.000000 0.000000 0.000000 0.000000 0.000000 0.000000 10.000000 
BN_SackDef03 0.000000 0.000000 0.000000 0.000000 0.000000 0.000000 10.000000 
BN_SackDef04 0.000000 0.000000 0.000000 0.000000 0.000000 0.000000 10.000000 
BN_SackDef05 0.000000 0.000000 0.000000 0.000000 0.000000 0.000000 10.000000 
BN_SackDef06 0.000000 0.000000 0.000000 0.000000 0.000000 0.000000 10.000000 
#Beginning of Data. Separated by tabs
#Fr	Tx	Ty	Tz	Rx	Ry	Rz	SF
[BN_Tick_Root]
1220 0.000000 0.000000 0.000000 0.000000 0.000000 -0.000020 0.000000
1221 0.000000 0.000000 0.000000 0.000000 0.000000 -0.000020 0.000000
1222 0.000000 0.000000 0.000000 0.000000 0.000000 -0.000020 0.000000
1223 0.000000 0.000000 0.000000 0.000000 0.000000 -0.000020 0.000000
1224 0.000000 0.000000 0.000000 0.000000 0.000000 -0.000020 0.000000
[BN_Torso]
1220 338.990417 6026.769531 85.379074 -141.694839 24.862398 172.665222 6036.899414
1221 343.680176 6051.151855 77.577606 -145.627838 24.899586 171.936661 6061.400391
1222 348.270111 6076.664551 71.190468 -149.565475 24.891327 171.206223 6087.052734
1223 352.440002 6101.513184 66.650917 -153.492340 24.838177 170.479935 6112.047363
1224 355.941742 6123.857910 63.950413 -156.972702 24.784081 169.834274 6134.526855
[BN_L_Leg_Front01]
1220 -68.477791 10.734189 -26.804373 -123.829185 78.992218 160.125168 74.316254
1221 -68.477791 10.734189 -26.804373 -131.791672 80.377655 155.117294 74.316254
1222 -68.477791 10.734189 -26.804373 -140.523361 81.477135 149.207352 74.316254
1223 -68.477791 10.734189 -26.804373 -149.421585 82.293907 142.867523 74.316254
1224 -68.477791 10.734189 -26.804373 -157.709442 82.840973 136.756729 74.316254
[BN_L_Leg_Rear01]
1220 -72.133743 -73.994843 -18.268616 50.915703 28.458096 -132.879913 104.939293
1221 -72.133743 -73.994843 -18.268616 51.118568 27.929214 -132.480652 104.939293
1222 -72.133743 -73.994843 -18.268616 51.315582 27.401182 -132.086838 104.939293
1223 -72.133743 -73.994843 -18.268616 51.454617 27.030321 -131.804794 104.939293
1224 -72.133743 -73.994843 -18.268616 51.590343 26.661137 -131.526352 104.939293
[BN_MetalTop]
1220 0.000008 13.737477 26.403606 92.251366 -17.585709 -97.417938 29.763546
1221 0.000008 13.737477 26.403606 92.251366 -17.585709 -97.417938 29.763546
1222 0.000008 13.737477 26.403606 92.251366 -17.585709 -97.417938 29.763546
1223 0.000008 13.737477 26.403606 92.251366 -17.585709 -97.417938 29.763546
1224 0.000008 13.737477 26.403606 92.251366 -17.585709 -97.417938 29.763546
[BN_Neck]
1220 0.000014 95.233284 10.002091 -89.999672 -65.297531 89.999657 95.757088
1221 0.000014 95.233284 10.002091 -89.999672 -65.297531 89.999657 95.757088
1222 0.000014 95.233284 10.002091 -89.999672 -65.297531 89.999657 95.757088
1223 0.000014 95.233284 10.002091 -89.999672 -65.297531 89.999657 95.757088
1224 0.000014 95.233284 10.002091 -89.999672 -65.297531 89.999657 95.757088
[BN_R_Leg_Front01]
1220 68.477768 10.734107 -26.804314 81.964561 46.021633 30.556822 74.316193
1221 68.477768 10.734107 -26.804314 81.964561 46.021633 30.556822 74.316193
1222 68.477768 10.734107 -26.804314 81.964561 46.021633 30.556822 74.316193
1223 68.477768 10.734107 -26.804314 81.964569 46.021641 30.556822 74.316193
1224 68.477768 10.734107 -26.804314 81.964561 46.021633 30.556822 74.316193
[BN_R_Leg_Rear01]
1220 72.133751 -73.994873 -18.268644 -30.357452 54.545067 6.375107 104.939331
1221 72.133751 -73.994873 -18.268644 -29.290966 55.649834 6.847300 104.939331
1222 72.133751 -73.994873 -18.268644 -28.179020 56.746948 7.369294 104.939331
1223 72.133751 -73.994873 -18.268644 -27.192757 57.657604 7.831070 104.939331
1224 72.133751 -73.994873 -18.268644 -26.337278 58.404011 8.239355 104.939331
[BN_Sack]
1220 -0.000000 -78.024918 33.657791 91.379875 -11.014523 -97.199577 84.974907
1221 -0.000000 -78.024918 33.657791 91.379875 -11.014523 -97.199577 84.974907
1222 -0.000000 -78.024918 33.657791 91.379875 -11.014523 -97.199577 84.974907
1223 -0.000000 -78.024918 33.657791 91.379875 -11.014523 -97.199577 84.974907
1224 -0.000000 -78.024918 33.657791 91.379875 -11.014523 -97.199577 84.974907
[BN_L_Leg_Front02]
1220 142.805023 -0.000015 -0.000104 -0.510744 1.126643 -176.726959 142.805023
1221 142.805023 -0.000015 -0.000104 -0.561550 1.148959 -179.417572 142.805023
1222 142.805023 -0.000015 -0.000104 -0.603772 1.162252 178.362457 142.805023
1223 142.805023 -0.000015 -0.000104 -0.636607 1.172212 176.631256 142.805023
1224 142.805023 -0.000015 -0.000104 -0.659912 1.174529 175.354446 142.805023
[BN_L_Leg_Front03]
1220 124.143021 -0.000045 0.000007 0.355279 -0.155060 160.093201 124.143021
1221 124.143021 -0.000045 0.000007 0.351545 -0.143670 161.104340 124.143021
1222 124.143021 -0.000045 0.000007 0.354554 -0.140529 161.923615 124.143021
1223 124.143021 -0.000045 0.000007 0.353033 -0.137568 162.547226 124.143021
1224 124.143021 -0.000045 0.000007 0.351792 -0.134090 162.999710 124.143021
[BN_L_Leg_Rear02]
1220 139.939041 0.000075 -0.000022 0.091020 -0.241368 94.378677 139.939041
1221 139.939041 0.000075 -0.000022 0.081564 -0.235053 95.737732 139.939041
1222 139.939041 0.000075 -0.000022 0.076272 -0.225377 96.917236 139.939041
1223 139.939041 0.000075 -0.000022 0.070569 -0.229194 97.921913 139.939041
1224 139.939041 0.000075 -0.000022 0.065785 -0.225978 98.723381 139.939041
[BN_L_Leg_Rear03]
1220 142.839615 0.000179 -0.000060 0.000467 -0.002300 -112.976631 142.839615
1221 142.839615 0.000179 -0.000060 0.000498 -0.002294 -114.521248 142.839615
1222 142.839615 0.000179 -0.000060 0.000525 -0.002288 -115.848343 142.839615
1223 142.839615 0.000179 -0.000060 0.000547 -0.002283 -116.956940 142.839615
1224 142.839615 0.000179 -0.000060 0.000564 -0.002278 -117.828156 142.839615
[BN_Head]
1220 57.062447 -0.000030 0.000000 8.228334 3.394466 65.253647 57.062447
1221 57.062447 -0.000030 0.000000 8.228333 3.394466 65.253647 57.062447
1222 57.062447 -0.000030 0.000000 8.228334 3.394466 65.253647 57.062447
1223 57.062447 -0.000030 0.000000 8.228334 3.394466 65.253647 57.062447
1224 57.062447 -0.000030 0.000000 8.228335 3.394466 65.253647 57.062447
[BN_Needle]
1220 33.915161 69.677544 -0.000060 0.000003 0.000030 87.896805 77.493217
1221 33.915161 69.677544 -0.000060 0.000003 0.000030 87.896805 77.493217
1222 33.915161 69.677544 -0.000060 0.000003 0.000030 87.896805 77.493217
1223 33.915161 69.677544 -0.000060 0.000003 0.000030 87.896805 77.493217
1224 33.915161 69.677544 -0.000060 0.000003 0.000030 87.896805 77.493217
[BN_R_Leg_Front02]
1220 142.804947 -0.000060 0.000060 -0.193508 0.258789 88.345444 142.804947
1221 142.804947 -0.000060 0.000060 -0.193496 0.258754 88.345459 142.804947
1222 142.804947 -0.000060 0.000060 -0.193484 0.258720 88.345482 142.804947
1223 142.804947 -0.000060 0.000060 -0.193472 0.258685 88.345505 142.804947
1224 142.804947 -0.000060 0.000060 -0.193460 0.258651 88.345520 142.804947
[BN_R_Leg_Front03]
1220 124.143005 -0.000060 -0.000156 -0.354651 -0.448668 -95.082878 124.143005
1221 124.143005 -0.000060 -0.000156 -0.354651 -0.448667 -95.082870 124.143005
1222 124.143005 -0.000060 -0.000156 -0.354651 -0.448667 -95.082870 124.143005
1223 124.143005 -0.000060 -0.000156 -0.354651 -0.448667 -95.082870 124.143005
1224 124.143005 -0.000060 -0.000156 -0.354651 -0.448668 -95.082870 124.143005
[BN_R_Leg_Rear02]
1220 139.939011 -0.000149 0.000015 -0.089250 -0.236398 -94.187912 139.939011
1221 139.939011 -0.000149 0.000015 -0.079083 -0.223742 -96.101418 139.939011
1222 139.939011 -0.000149 0.000015 -0.072105 -0.228117 -97.763206 139.939011
1223 139.939011 -0.000149 0.000015 -0.065566 -0.232094 -99.157455 139.939011
1224 139.939011 -0.000149 0.000015 -0.060290 -0.229212 -100.272987 139.939011
[BN_R_Leg_Rear03]
1220 142.839417 0.000075 0.000119 0.002301 -0.000463 112.749367 142.839417
1221 142.839417 0.000075 0.000119 0.002292 -0.000507 114.935135 142.839417
1222 142.839417 0.000075 0.000119 0.002283 -0.000544 116.781334 142.839417
1223 142.839417 0.000075 0.000119 0.002276 -0.000574 118.304291 142.839417
1224 142.839417 0.000075 0.000119 0.002270 -0.000598 119.494667 142.839417
[BN_SackDef01]
1220 249.782272 -3.760844 42.949425 -128.408218 -44.374973 -11.740845 253.475800
1221 249.782272 -3.760844 42.949425 -128.408218 -44.374973 -11.740845 253.475800
1222 249.782272 -3.760844 42.949425 -128.408218 -44.374973 -11.740845 253.475800
1223 249.782272 -3.760844 42.949425 -128.408218 -44.374973 -11.740845 253.475800
1224 249.782272 -3.760844 42.949425 -128.408218 -44.374973 -11.740845 253.475800
[BN_SackDef02]
1220 138.789795 -62.131748 45.674385 32.077126 -27.375721 -88.781525 158.773758
1221 138.789795 -62.131748 45.674385 32.077126 -27.375721 -88.781525 158.773758
1222 138.789795 -62.131748 45.674385 32.077126 -27.375721 -88.781525 158.773758
1223 138.789795 -62.131748 45.674385 32.077126 -27.375721 -88.781525 158.773758
1224 138.789795 -62.131748 45.674385 32.077126 -27.375721 -88.781525 158.773758
[BN_SackDef03]
1220 249.782272 -3.760785 -42.949661 18.144459 44.375008 -11.740894 253.475845
1221 249.782272 -3.760785 -42.949661 18.144459 44.375008 -11.740894 253.475845
1222 249.782272 -3.760785 -42.949661 18.144459 44.375008 -11.740894 253.475845
1223 249.782272 -3.760785 -42.949661 18.144459 44.375008 -11.740894 253.475845
1224 249.782272 -3.760785 -42.949661 18.144459 44.375008 -11.740894 253.475845
[BN_SackDef04]
1220 138.789780 -62.131645 -45.674473 146.059982 27.375723 -88.781555 158.773743
1221 138.789780 -62.131645 -45.674473 146.059982 27.375723 -88.781555 158.773743
1222 138.789780 -62.131645 -45.674473 146.059982 27.375723 -88.781555 158.773743
1223 138.789780 -62.131645 -45.674473 146.059982 27.375723 -88.781555 158.773743
1224 138.789780 -62.131645 -45.674473 146.059982 27.375723 -88.781555 158.773743
[BN_SackDef05]
1220 118.790161 46.167137 -63.831196 0.155741 51.314110 90.605110 142.537460
1221 118.790161 46.167137 -63.831196 0.155741 51.314110 90.605110 142.537460
1222 118.790161 46.167137 -63.831196 0.155741 51.314110 90.605110 142.537460
1223 118.790161 46.167137 -63.831196 0.155741 51.314110 90.605110 142.537460
1224 118.790161 46.167137 -63.831196 0.155741 51.314110 90.605110 142.537460
[BN_SackDef06]
1220 118.790207 46.167194 63.831219 152.058487 -51.314072 90.605019 142.537537
1221 118.790207 46.167194 63.831219 152.058487 -51.314072 90.605019 142.537537
1222 118.790207 46.167194 63.831219 152.058487 -51.314072 90.605019 142.537537
1223 118.790207 46.167194 63.831219 152.058487 -51.314072 90.605019 142.537537
1224 118.790207 46.167194 63.831219 152.058487 -51.314072 90.605019 142.537537
